# xmcd
#
# Track frame offsets:
#	150
#	24719
#	39411
#	54016
#	64794
#	86213
#	102875
#	116188
#	136125
#	151202
#	171391
#	187300
#
# Disc length: 2769 seconds
#
# Revision: 0
# Processed by: cddbd v1.5.2PL0 Copyright (c) Steve Scherf et al.
# Submitted via: dBpowerAMP V4.0
#
DISCID=a30acf0c
DTITLE=Bob Livingston et Al - Cowboys and Indians
DYEAR=1900
DGENRE=Undefined
TTITLE0=Cowboys and Indians
TTITLE1=Cowboys and Cowgirls All Over the World
TTITLE2=I Believe It
TTITLE3=Take Advantage Of Your Chances
TTITLE4=Original Spirit
TTITLE5=On A Dream With You
TTITLE6=Mahatma Ghandi and Sitting Bull
TTITLE7=Mangalam
TTITLE8=Love Cannot Be Broken
TTITLE9=Where the Beat Was Young
TTITLE10=Raining For So Long
TTITLE11=Geronimo's Cadillac
EXTD=
EXTT0=
EXTT1=
EXTT2=
EXTT3=
EXTT4=
EXTT5=
EXTT6=
EXTT7=
EXTT8=
EXTT9=
EXTT10=
EXTT11=
PLAYORDER=
